<?xml version="1.0" standalone="no"?>
<!DOCTYPE svg PUBLIC "-//W3C//DTD SVG 20010904//EN"
 "http://www.w3.org/TR/2001/REC-SVG-20010904/DTD/svg10.dtd">
<svg version="1.0" xmlns="http://www.w3.org/2000/svg"
 width="350.000000pt" height="275.000000pt" viewBox="0 0 350.000000 275.000000"
 preserveAspectRatio="xMidYMid meet">

<g transform="translate(0.000000,275.000000) scale(0.100000,-0.100000)"
fill="#000000" stroke="none">
<path d="M1591 2625 c-43 -37 -56 -84 -36 -129 8 -20 22 -52 30 -71 14 -32 14
-36 -4 -54 -11 -11 -65 -34 -119 -51 -163 -50 -268 -134 -333 -266 -41 -83
-49 -144 -21 -172 30 -30 108 -34 623 -30 368 2 459 6 472 17 12 9 17 29 17
68 0 70 -35 145 -103 220 -70 76 -148 125 -254 158 -48 15 -98 34 -110 41 -30
19 -29 51 4 99 20 28 28 53 28 83 0 38 -5 48 -37 78 -49 44 -110 48 -157 9z
m114 -65 c9 -15 -4 -47 -22 -54 -46 -18 -81 35 -43 66 22 18 50 13 65 -12z
m-150 -305 c59 -29 71 -87 27 -136 -22 -24 -36 -31 -66 -31 -100 0 -124 134
-31 173 28 11 33 11 70 -6z m286 -24 c37 -37 38 -79 3 -120 -21 -25 -33 -31
-65 -31 -86 0 -123 100 -58 154 41 35 83 34 120 -3z m218 -137 c26 -21 31 -33
31 -68 0 -31 -6 -48 -22 -63 -52 -48 -137 -24 -154 42 -13 53 36 114 93 115
12 0 35 -12 52 -26z m-708 -13 c60 -60 23 -151 -61 -151 -56 0 -90 34 -90 89
0 32 6 44 31 65 41 35 83 34 120 -3z"/>
<path d="M974 1946 c-28 -13 -67 -38 -88 -56 -44 -39 -86 -117 -86 -159 0 -20
-6 -32 -18 -35 -18 -6 -52 -55 -52 -76 0 -6 -11 -26 -24 -43 -117 -157 -229
-591 -158 -615 20 -6 122 99 184 192 78 117 133 227 157 316 11 40 24 77 30
84 16 20 23 74 11 81 -8 5 1 21 26 46 38 39 38 41 44 132 3 64 10 101 23 120
29 45 24 47 -49 13z"/>
<path d="M1288 1805 c-8 -9 0 -170 13 -270 16 -119 62 -252 110 -319 29 -41
36 -55 21 -47 -24 13 -108 116 -150 186 -53 88 -102 282 -102 406 l0 39 -47 0
-46 0 6 -120 c10 -190 50 -316 142 -445 60 -85 120 -135 223 -189 112 -57 167
-98 188 -137 l16 -32 29 51 c32 57 46 68 184 143 246 133 345 309 345 612 l0
112 -72 2 c-314 8 -855 13 -860 8z"/>
<path d="M439 763 c-48 -111 -171 -424 -168 -426 2 -2 21 -10 41 -20 l38 -17
13 33 c8 18 20 49 27 70 l14 37 97 0 97 0 27 -69 27 -69 44 16 c32 12 43 21
39 32 -3 8 -45 115 -93 237 l-87 222 -48 1 c-47 0 -48 0 -68 -47z m116 -213
c6 -18 2 -20 -54 -20 l-60 0 25 67 c14 37 28 71 31 76 5 8 40 -66 58 -123z"/>
<path d="M1607 778 c-55 -133 -177 -436 -177 -441 0 -11 73 -38 81 -30 4 5 18
35 31 68 l24 60 91 3 c102 3 99 5 133 -80 12 -32 24 -58 26 -58 5 0 84 32 84
34 0 1 -42 107 -94 236 l-94 235 -46 3 c-43 3 -46 1 -59 -30z m113 -250 c0 -5
-27 -8 -60 -8 -33 0 -60 1 -60 3 0 2 15 41 50 132 l11 30 30 -75 c16 -41 29
-78 29 -82z"/>
<path d="M1077 783 c-4 -3 -7 -26 -7 -50 0 -48 -19 -65 -51 -45 -28 18 -101
15 -129 -5 -17 -12 -25 -13 -28 -5 -2 7 -23 12 -48 12 l-44 0 0 -191 0 -190
48 3 47 3 5 120 c3 66 9 127 14 137 10 21 61 42 83 34 9 -4 20 -1 25 6 6 10 8
10 8 1 0 -8 13 -13 30 -13 l30 0 0 -95 c0 -157 32 -201 139 -193 78 5 92 18
78 64 -9 29 -15 34 -31 30 -12 -3 -30 -8 -41 -11 -41 -11 -50 8 -50 107 l0 93
48 3 47 3 0 40 0 39 -50 0 -50 0 0 55 0 55 -33 0 c-19 0 -37 -3 -40 -7z"/>
<path d="M2032 687 c-179 -68 -153 -364 33 -385 45 -5 131 13 141 30 3 4 0 24
-6 44 -10 30 -15 35 -34 29 -87 -29 -138 -11 -156 55 -23 87 25 158 99 146 20
-3 44 -7 55 -8 14 -2 22 7 32 35 13 37 13 38 -14 48 -44 17 -114 20 -150 6z"/>
<path d="M2357 685 c-140 -50 -170 -240 -54 -342 64 -56 170 -56 234 0 120
105 82 306 -65 347 -48 13 -68 12 -115 -5z m124 -104 c25 -25 29 -37 29 -84 0
-71 -30 -107 -89 -107 -57 0 -91 42 -91 113 1 54 11 75 45 95 36 20 75 14 106
-17z"/>
<path d="M2797 681 c-29 -15 -37 -16 -37 -5 0 10 -14 14 -50 14 l-50 0 0 -190
0 -190 50 0 50 0 0 110 c0 80 4 119 15 140 16 31 51 46 85 37 17 -4 22 3 34
41 12 42 12 48 -3 54 -28 12 -56 9 -94 -11z"/>
<path d="M3068 682 c-30 -16 -38 -17 -38 -6 0 10 -13 14 -45 14 l-45 0 0 -190
0 -190 45 0 45 0 0 121 0 121 31 29 c37 34 83 39 99 10 5 -11 10 -78 10 -150
l0 -131 45 0 45 0 0 148 c0 97 -5 155 -13 171 -31 62 -115 86 -179 53z"/>
</g>
</svg>
